<?xml version="1.0" standalone="yes"?>
<svg xmlns="http://www.w3.org/2000/svg" width="288" height="264">
<path style="fill:#ffffff; stroke:none;" d="M0 0L0 264L288 264L288 0L0 0z"/>
<path style="fill:#010101; stroke:none;" d="M114 55C113.493 51.5693 112.575 44.8738 107.945 44.7515C104.268 44.6544 100.531 49.0593 98 51.2855C89.4136 58.8378 78.6696 66.7272 72 76L71 76C63.9081 63.2742 53.9441 51.807 45.4244 40C43.8149 37.7695 39.3884 28.3496 36.1458 28.9213C31.5433 29.7328 29.8548 48.0089 29 52C23.8877 75.8684 14.9369 100.661 13 125C-1.51019 125.002 2.18887 134.628 4.88426 146C9.28575 164.571 17.3834 182.915 29.2114 198C62.1959 240.068 116.244 261.359 169 249.985C213.871 240.311 254.147 207.812 269.656 164C272.67 155.484 281.353 136.281 278.223 127.318C277.098 124.095 271.61 125.001 269 125C261.406 124.997 251.432 126.719 244.105 124.682C240.577 123.701 239.25 119.977 237.753 117C233.707 108.951 226.901 98.8313 225.179 90C224.222 85.0902 228.495 80.0611 230.691 76C236.452 65.3479 241.76 54.7874 247.244 44C248.983 40.5794 255.776 31.2364 252.353 27.6181C249.45 24.5493 241.492 27.7012 238 28.3997C224.824 31.0353 210.728 32.6898 198 37C196.711 32.5255 194.636 28.2344 192.691 24C191.452 21.2999 190.082 18.657 188.753 16L186.243 11.0046C182.426 3.71432 178.503 5.92001 176.63 13C174.724 20.2089 173.651 37.3418 167.57 42.0625C163.705 45.0634 156.645 45.2279 152 46.3742C139.544 49.4482 126.711 53.2883 114 55z"/>
<path style="fill:#ed3d01; stroke:none;" d="M181 15C178.359 32.9517 158.71 66.318 178.464 80.0509C185.05 84.6293 192.888 76.3007 198.674 81.3326C208.749 90.0936 209.558 100.91 225 103C222.405 93.9938 214.89 74.1684 207 69C207.027 56.1329 194.522 40.6854 189.424 29C187.332 24.2034 185.502 17.9487 181 15M201 41L213 66C218.916 63.1173 224.89 65.0894 229.945 62.8681C236.86 59.8297 244.966 39.0603 247 32L201 41M37 38L22 106C32.8499 99.1522 29.36 91.509 34.1782 81.9992C36.9981 76.4338 43.0967 73.4242 48 70L49 63L51 63C50.3337 53.285 43.8951 44.7616 37 38M116 60C119.089 73.4739 123.159 89.5587 141 83.2731C147.117 81.118 151.123 75.7229 158 76C164.334 68.374 165.364 57.3589 168 48L116 60M107 50C94.7946 61.2421 82.5272 72.542 70 83.4244C66.9519 86.0722 58.0878 92.1747 59.3418 96.9306C60.5739 101.603 67.5645 101.356 71.0008 99.9907C76.6365 97.7522 79.7857 91.8342 85.0787 89.5779C91.3562 86.9021 98.5832 90.8603 105 89.7677C109.639 88.978 112.849 84.924 117 83C115.677 73.1815 112.216 58.3517 107 50z"/>
<path style="fill:#591701; stroke:none;" d="M50 55L51 56L50 55z"/>
<path style="fill:#090909; stroke:none;" d="M240 56L241 57L240 56z"/>
<path style="fill:#131709; stroke:none;" d="M51 57L52 58L51 57z"/>
<path style="fill:#696969; stroke:none;" d="M240 58L241 59L240 58z"/>
<path style="fill:#ef3d01; stroke:none;" d="M217 59L218 60L217 59z"/>
<path style="fill:#0b0d03; stroke:none;" d="M234 59L235 60L234 59z"/>
<path style="fill:#431101; stroke:none;" d="M169 60L170 61L169 60z"/>
<path style="fill:#1f0901; stroke:none;" d="M204 60L205 61L204 60z"/>
<path style="fill:#912b01; stroke:none;" d="M233 60L234 61L233 60z"/>
<path style="fill:#576331; stroke:none;" d="M239 60L240 61L239 60z"/>
<path style="fill:#ef3d01; stroke:none;" d="M50 61L51 62L50 61z"/>
<path style="fill:#7d2101; stroke:none;" d="M204 61L205 62L204 61z"/>
<path style="fill:#0b0f03; stroke:none;" d="M232 61L233 62L232 61z"/>
<path style="fill:#efd751; stroke:none;" d="M54 62C53.0261 73.0843 45.5082 74.3107 39.5687 82.0432C35.3196 87.5749 36.6073 94.8566 33.5062 100.91C28.7612 110.174 19.1396 113.641 18 125L19 125C27.8769 112.503 42.7455 102.518 54 92.0887C57.4842 88.8599 65.4999 84.2283 65.8835 79C66.2711 73.7174 57.7834 65.0802 54 62z"/>
<path style="fill:#7d2101; stroke:none;" d="M205 62L206 63L205 62z"/>
<path style="fill:#732f01; stroke:none;" d="M224 62L225 63L224 62z"/>
<path style="fill:#913b01; stroke:none;" d="M231 62L232 63L231 62z"/>
<path style="fill:#070701; stroke:none;" d="M235 62L236 63L235 62z"/>
<path style="fill:#ef3d01; stroke:none;" d="M49 63L50 64L49 63z"/>
<path style="fill:#ab2d01; stroke:none;" d="M50 63L51 64L50 63z"/>
<path style="fill:#070301; stroke:none;" d="M206 63L207 64L206 63z"/>
<path style="fill:#912d01; stroke:none;" d="M211 63L212 64L211 63z"/>
<path style="fill:#913b01; stroke:none;" d="M218 63L219 64L218 63z"/>
<path style="fill:#732f01; stroke:none;" d="M226 63L227 64L226 63z"/>
<path style="fill:#913b01; stroke:none;" d="M230 63L231 64L230 63z"/>
<path style="fill:#696969; stroke:none;" d="M238 63L239 64L238 63z"/>
<path style="fill:#0b0d03; stroke:none;" d="M50 64L51 65L50 64z"/>
<path style="fill:#ef3d01; stroke:none;" d="M177 64L175 67L177 64z"/>
<path style="fill:#7d2101; stroke:none;" d="M206 64L207 65L206 64z"/>
<path style="fill:#070301; stroke:none;" d="M211 64L213 66L211 64z"/>
<path style="fill:#952701; stroke:none;" d="M212 64L213 65L212 64z"/>
<path style="fill:#8d2501; stroke:none;" d="M215 64L216 65L215 64z"/>
<path style="fill:#5b511f; stroke:none;" d="M221.667 64.3333L222.333 64.6667L221.667 64.3333z"/>
<path style="fill:#ab2d01; stroke:none;" d="M49 65L50 66L49 65z"/>
<path style="fill:#534b1d; stroke:none;" d="M53 65L54 66L53 65z"/>
<path style="fill:#070301; stroke:none;" d="M207 65L208 66L207 65z"/>
<path style="fill:#8d2501; stroke:none;" d="M214 65L215 66L214 65z"/>
<path style="fill:#615721; stroke:none;" d="M219 65L220 66L219 65z"/>
<path style="fill:#efd751; stroke:none;" d="M220 82L222 82L230 66C214.932 65.3547 214.579 68.9792 220 82z"/>
<path style="fill:#e9cf4d; stroke:none;" d="M224 65L225 66L224 65z"/>
<path style="fill:#5b511f; stroke:none;" d="M225 65L226 66L225 65z"/>
<path style="fill:#170701; stroke:none;" d="M49 66L50 67L49 66z"/>
<path style="fill:#e9cf4d; stroke:none;" d="M53 66L54 67L53 66z"/>
<path style="fill:#e73b01; stroke:none;" d="M169 66L170 67L169 66z"/>
<path style="fill:#7d2101; stroke:none;" d="M207 66L208 67L207 66z"/>
<path style="fill:#615721; stroke:none;" d="M217 66L218 67L217 66z"/>
<path style="fill:#ef3d01; stroke:none;" d="M48 67L47 69L48 67z"/>
<path style="fill:#6f1d01; stroke:none;" d="M169 67L170 68L169 67z"/>
<path style="fill:#070301; stroke:none;" d="M208 67L209 68L208 67z"/>
<path style="fill:#615721; stroke:none;" d="M215 67L216 68L215 67z"/>
<path style="fill:#ab2d01; stroke:none;" d="M48 68L49 69L48 68z"/>
<path style="fill:#e73b01; stroke:none;" d="M170 68L171 69L170 68z"/>
<path style="fill:#ef3f01; stroke:none;" d="M207 68L208 69L207 68z"/>
<path style="fill:#7d2101; stroke:none;" d="M208 68L209 69L208 68z"/>
<path style="fill:#615721; stroke:none;" d="M214 68L215 69L214 68z"/>
<path style="fill:#ef3d01; stroke:none;" d="M46 69L47 70L46 69z"/>
<path style="fill:#0d1103; stroke:none;" d="M48 69L49 70L48 69z"/>
<path style="fill:#615721; stroke:none;" d="M52 69L53 70L52 69z"/>
<path style="fill:#7f712b; stroke:none;" d="M167 69L168 70L167 69z"/>
<path style="fill:#6f1d01; stroke:none;" d="M170 69L171 70L170 69z"/>
<path style="fill:#ef3d01; stroke:none;" d="M203 69L204 70L203 69z"/>
<path style="fill:#ab2d01; stroke:none;" d="M47 70L46 72L47 70z"/>
<path style="fill:#efd751; stroke:none;" d="M167 70L154 125L236 125L227 105L211.729 102.951L201 93C201.021 77.4701 188.211 87.1302 180.004 83.9491C173.336 81.3645 171.092 75.2044 167 70z"/>
<path style="fill:#070701; stroke:none;" d="M168 70L169 71L168 70z"/>
<path style="fill:#ab2f01; stroke:none;" d="M171 70L172 71L171 70z"/>
<path style="fill:#ef3d01; stroke:none;" d="M45 71L46 72L45 71z"/>
<path style="fill:#070901; stroke:none;" d="M47 71L48 72L47 71z"/>
<path style="fill:#615721; stroke:none;" d="M51 71L52 72L51 71z"/>
<path style="fill:#75814f; stroke:none;" d="M168 71L169 72L168 71z"/>
<path style="fill:#eb3f01; stroke:none;" d="M172 71L173 72L172 71z"/>
<path style="fill:#ef3d01; stroke:none;" d="M185 71L186 72L185 71z"/>
<path style="fill:#cd4b05; stroke:none;" d="M44 72L45 73L44 72z"/>
<path style="fill:#111503; stroke:none;" d="M45 72L46 73L45 72z"/>
<path style="fill:#211f0b; stroke:none;" d="M50 72L51 73L50 72z"/>
<path style="fill:#070701; stroke:none;" d="M169 72L170 73L169 72z"/>
<path style="fill:#732103; stroke:none;" d="M172 72L173 73L172 72z"/>
<path style="fill:#973103; stroke:none;" d="M43 73L44 74L43 73z"/>
<path style="fill:#e9cf4d; stroke:none;" d="M50 73L51 74L50 73z"/>
<path style="fill:#617b13; stroke:none;" d="M169 73L170 74L169 73z"/>
<path style="fill:#eb3f01; stroke:none;" d="M173 73L174 74L173 73z"/>
<path style="fill:#ef3d01; stroke:none;" d="M207 73L205 76L207 73z"/>
<path style="fill:#ab2d01; stroke:none;" d="M40 74L39 76L40 74z"/>
<path style="fill:#1d1107; stroke:none;" d="M41 74L42 75L41 74z"/>
<path style="fill:#615721; stroke:none;" d="M49 74L50 75L49 74z"/>
<path style="fill:#e73b01; stroke:none;" d="M158 74L159 75L158 74z"/>
<path style="fill:#ebdf61; stroke:none;" d="M169 74L170 75L169 74z"/>
<path style="fill:#5f551f; stroke:none;" d="M170 74L171 75L170 74z"/>
<path style="fill:#732103; stroke:none;" d="M173 74L174 75L173 74z"/>
<path style="fill:#090501; stroke:none;" d="M40 75L41 76L40 75z"/>
<path style="fill:#615721; stroke:none;" d="M47 75L48 76L47 75z"/>
<path style="fill:#ef3d01; stroke:none;" d="M124 75L125 76L124 75z"/>
<path style="fill:#dd4f05; stroke:none;" d="M153 75L154 76L153 75z"/>
<path style="fill:#171d05; stroke:none;" d="M154 75L155 76L154 75z"/>
<path style="fill:#6f1d01; stroke:none;" d="M155 75L156 76L155 75z"/>
<path style="fill:#8d2501; stroke:none;" d="M158 75L159 76L158 75z"/>
<path style="fill:#ebd34f; stroke:none;" d="M170 75L171 76L170 75z"/>
<path style="fill:#5b511f; stroke:none;" d="M171 75L172 76L171 75z"/>
<path style="fill:#e93f01; stroke:none;" d="M174 75L175 76L174 75z"/>
<path style="fill:#ef3d01; stroke:none;" d="M179 75L180 76L179 75z"/>
<path style="fill:#7b2101; stroke:none;" d="M38 76L39 77L38 76z"/>
<path style="fill:#030101; stroke:none;" d="M39 76L40 77L39 76z"/>
<path style="fill:#534b1d; stroke:none;" d="M45 76L46 77L45 76z"/>
<path style="fill:#e9cf4d; stroke:none;" d="M46 76L47 77L46 76z"/>
<path style="fill:#8b2901; stroke:none;" d="M120 76L121 77L120 76z"/>
<path style="fill:#973103; stroke:none;" d="M152 76L153 77L152 76z"/>
<path style="fill:#e9cf4f; stroke:none;" d="M171 76L172 77L171 76z"/>
<path style="fill:#6f1d01; stroke:none;" d="M174 76L175 77L174 76z"/>
<path style="fill:#ef3d01; stroke:none;" d="M202 76L203 77L202 76z"/>
<path style="fill:#ab2d01; stroke:none;" d="M37 77L34 81L37 77z"/>
<path style="fill:#232523; stroke:none;" d="M43 77L44 78L43 77z"/>
<path style="fill:#e9cf4d; stroke:none;" d="M44 77L45 78L44 77z"/>
<path style="fill:#070301; stroke:none;" d="M120 77L121 78L120 77z"/>
<path style="fill:#912b01; stroke:none;" d="M151 77L152 78L151 77z"/>
<path style="fill:#433d17; stroke:none;" d="M156 77L157 78L156 77z"/>
<path style="fill:#d9c547; stroke:none;" d="M157 77L158 78L157 77z"/>
<path style="fill:#efd751; stroke:none;" d="M158 77C146.889 84.3826 137.405 88.4887 124 86C128.187 94.92 130.456 104.587 133.28 114C134.261 117.271 134.777 122.779 138.278 124.397C153.57 131.463 154.783 100.123 156.881 91C157.885 86.6342 160.506 80.9542 158 77z"/>
<path style="fill:#e9d94b; stroke:none;" d="M159 77L160 78L159 77z"/>
<path style="fill:#5b511f; stroke:none;" d="M160 77L161 78L160 77z"/>
<path style="fill:#efd551; stroke:none;" d="M168 77L169 78L168 77z"/>
<path style="fill:#5b511f; stroke:none;" d="M172 77L173 78L172 77z"/>
<path style="fill:#732103; stroke:none;" d="M175 77L176 78L175 77z"/>
<path style="fill:#0d0701; stroke:none;" d="M37 78L38 79L37 78z"/>
<path style="fill:#29230d; stroke:none;" d="M42 78L43 79L42 78z"/>
<path style="fill:#ef3d01; stroke:none;" d="M125 78L126 79L125 78z"/>
<path style="fill:#973103; stroke:none;" d="M149 78L150 79L149 78z"/>
<path style="fill:#797f21; stroke:none;" d="M155 78L156 79L155 78z"/>
<path style="fill:#ebd74d; stroke:none;" d="M156 78L157 79L156 78z"/>
<path style="fill:#e9cf4f; stroke:none;" d="M160 78L161 79L160 78z"/>
<path style="fill:#edd74f; stroke:none;" d="M172 78L173 79L172 78z"/>
<path style="fill:#5f551f; stroke:none;" d="M173 78L174 79L173 78z"/>
<path style="fill:#732103; stroke:none;" d="M176 78L177 79L176 78z"/>
<path style="fill:#ef3d01; stroke:none;" d="M188 78L189 79L188 78z"/>
<path style="fill:#0d0701; stroke:none;" d="M36 79L37 80L36 79z"/>
<path style="fill:#615721; stroke:none;" d="M41 79L42 80L41 79z"/>
<path style="fill:#090d03; stroke:none;" d="M120 79L121 80L120 79z"/>
<path style="fill:#eb3f01; stroke:none;" d="M121 79L122 80L121 79z"/>
<path style="fill:#ef3d01; stroke:none;" d="M141 79L142 80L141 79z"/>
<path style="fill:#973103; stroke:none;" d="M147 79L148 80L147 79z"/>
<path style="fill:#615721; stroke:none;" d="M153 79L154 80L153 79z"/>
<path style="fill:#8f7f31; stroke:none;" d="M160 79L161 80L160 79z"/>
<path style="fill:#efd551; stroke:none;" d="M169 79L171 81L169 79z"/>
<path style="fill:#ebd34f; stroke:none;" d="M173 79L174 80L173 79z"/>
<path style="fill:#e73d01; stroke:none;" d="M177 79L178 80L177 79z"/>
<path style="fill:#ef3d01; stroke:none;" d="M185 79L186 80L185 79z"/>
<path style="fill:#913b01; stroke:none;" d="M193 79L194 80L193 79z"/>
<path style="fill:#171d05; stroke:none;" d="M196 79L197 80L196 79z"/>
<path style="fill:#a96509; stroke:none;" d="M197 79L198 80L197 79z"/>
<path style="fill:#0f0501; stroke:none;" d="M35 80L36 81L35 80z"/>
<path style="fill:#e9cf4d; stroke:none;" d="M40 80L41 81L40 80z"/>
<path style="fill:#732101; stroke:none;" d="M121 80L122 81L121 80z"/>
<path style="fill:#ef3d01; stroke:none;" d="M138 80L139 81L138 80z"/>
<path style="fill:#973103; stroke:none;" d="M145 80L146 81L145 80z"/>
<path style="fill:#534b1d; stroke:none;" d="M151 80L152 81L151 80z"/>
<path style="fill:#e9cf4d; stroke:none;" d="M152 80L153 81L152 80z"/>
<path style="fill:#4f650d; stroke:none;" d="M174 80L175 81L174 80z"/>
<path style="fill:#6f1d01; stroke:none;" d="M177 80L178 81L177 80z"/>
<path style="fill:#9b4703; stroke:none;" d="M189 80L190 81L189 80z"/>
<path style="fill:#9f5b07; stroke:none;" d="M198 80L199 81L198 80z"/>
<path style="fill:#170701; stroke:none;" d="M34 81L35 82L34 81z"/>
<path style="fill:#615721; stroke:none;" d="M39 81L40 82L39 81z"/>
<path style="fill:#6f1d01; stroke:none;" d="M122 81L123 82L122 81z"/>
<path style="fill:#912b01; stroke:none;" d="M144 81L145 82L144 81z"/>
<path style="fill:#534b1d; stroke:none;" d="M149 81L150 82L149 81z"/>
<path style="fill:#e9cf4d; stroke:none;" d="M150 81L151 82L150 81z"/>
<path style="fill:#efd551; stroke:none;" d="M155 81L156 82L155 81z"/>
<path style="fill:#dde57f; stroke:none;" d="M174 81L175 82L174 81z"/>
<path style="fill:#dbc747; stroke:none;" d="M175 81L176 82L175 81z"/>
<path style="fill:#d1bb47; stroke:none;" d="M176 81L177 82L176 81z"/>
<path style="fill:#5b511f; stroke:none;" d="M177 81L178 82L177 81z"/>
<path style="fill:#7b2d03; stroke:none;" d="M181 81L182 82L181 81z"/>
<path style="fill:#ef3d01; stroke:none;" d="M183 81L184 82L183 81z"/>
<path style="fill:#8d2501; stroke:none;" d="M187 81L188 82L187 81z"/>
<path style="fill:#e93f01; stroke:none;" d="M199 81L200 82L199 81z"/>
<path style="fill:#ab2d01; stroke:none;" d="M33 82L34 83L33 82z"/>
<path style="fill:#534b1d; stroke:none;" d="M38 82L39 83L38 82z"/>
<path style="fill:#732101; stroke:none;" d="M124 82L125 83L124 82z"/>
<path style="fill:#8d2501; stroke:none;" d="M143 82L144 83L143 82z"/>
<path style="fill:#615721; stroke:none;" d="M148 82L149 83L148 82z"/>
<path style="fill:#e9cf4f; stroke:none;" d="M177 82L178 83L177 82z"/>
<path style="fill:#7f712b; stroke:none;" d="M191 82L192 83L191 82z"/>
<path style="fill:#edd959; stroke:none;" d="M192 82L193 83L192 82z"/>
<path style="fill:#d9c347; stroke:none;" d="M196 82L197 83L196 82z"/>
<path style="fill:#5b511f; stroke:none;" d="M197 82L198 83L197 82z"/>
<path style="fill:#732101; stroke:none;" d="M199 82L200 83L199 82z"/>
<path style="fill:#170d05; stroke:none;" d="M33 83L34 84L33 83z"/>
<path style="fill:#e9cf4d; stroke:none;" d="M38 83L39 84L38 83z"/>
<path style="fill:#ab2d01; stroke:none;" d="M114 83L113 85L114 83z"/>
<path style="fill:#1d2505; stroke:none;" d="M115 83L116 84L115 83z"/>
<path style="fill:#070701; stroke:none;" d="M116 83L117 84L116 83z"/>
<path style="fill:#0f1303; stroke:none;" d="M117 83L118 84L117 83z"/>
<path style="fill:#6f1d01; stroke:none;" d="M126 83L127 84L126 83z"/>
<path style="fill:#8d2501; stroke:none;" d="M141 83L142 84L141 83z"/>
<path style="fill:#615721; stroke:none;" d="M146 83L147 84L146 83z"/>
<path style="fill:#efd551; stroke:none;" d="M174 83L176 85L174 83z"/>
<path style="fill:#7f712b; stroke:none;" d="M178 83L179 84L178 83z"/>
<path style="fill:#534b1d; stroke:none;" d="M189 83L190 84L189 83z"/>
<path style="fill:#e9cf4d; stroke:none;" d="M190 83L191 84L190 83z"/>
<path style="fill:#e9cf4f; stroke:none;" d="M197 83L198 84L197 83z"/>
<path style="fill:#732101; stroke:none;" d="M200 83L201 84L200 83z"/>
<path style="fill:#615721; stroke:none;" d="M37 84L38 85L37 84z"/>
<path style="fill:#090301; stroke:none;" d="M114 84L115 85L114 84z"/>
<path style="fill:#030301; stroke:none;" d="M118 84L119 85L118 84z"/>
<path style="fill:#534b1d; stroke:none;" d="M144 84L145 85L144 84z"/>
<path style="fill:#e9cf4d; stroke:none;" d="M145 84L146 85L145 84z"/>
<path style="fill:#efd551; stroke:none;" d="M171 84L173 86L171 84z"/>
<path style="fill:#e9cf4d; stroke:none;" d="M180 84L181 85L180 84z"/>
<path style="fill:#5b511f; stroke:none;" d="M181 84L182 85L181 84z"/>
<path style="fill:#615721; stroke:none;" d="M187 84L188 85L187 84z"/>
<path style="fill:#efd551; stroke:none;" d="M191 84L193 86L191 84z"/>
<path style="fill:#5b511f; stroke:none;" d="M198 84L200 86L198 84z"/>
<path style="fill:#cb5505; stroke:none;" d="M201 84L202 85L201 84z"/>
<path style="fill:#874305; stroke:none;" d="M112 85L113 86L112 85z"/>
<path style="fill:#475b0b; stroke:none;" d="M118 85L119 86L118 85z"/>
<path style="fill:#070701; stroke:none;" d="M119 85L120 86L119 85z"/>
<path style="fill:#e9cf4d; stroke:none;" d="M123 85L124 86L123 85z"/>
<path style="fill:#5b511f; stroke:none;" d="M124 85L125 86L124 85z"/>
<path style="fill:#534b1d; stroke:none;" d="M142 85L143 86L142 85z"/>
<path style="fill:#e9cf4d; stroke:none;" d="M143 85L144 86L143 85z"/>
<path style="fill:#e9cf4f; stroke:none;" d="M198 85L199 86L198 85z"/>
<path style="fill:#070701; stroke:none;" d="M201 85L202 86L201 85z"/>
<path style="fill:#854105; stroke:none;" d="M111 86L112 87L111 86z"/>
<path style="fill:#433d17; stroke:none;" d="M116 86L117 87L116 86z"/>
<path style="fill:#dbc747; stroke:none;" d="M117 86L118 87L117 86z"/>
<path style="fill:#ebd953; stroke:none;" d="M118 86L119 87L118 86z"/>
<path style="fill:#5b511f; stroke:none;" d="M119 86L120 87L119 86z"/>
<path style="fill:#7f712b; stroke:none;" d="M126 86L127 87L126 86z"/>
<path style="fill:#534b1d; stroke:none;" d="M139 86L140 87L139 86z"/>
<path style="fill:#e9cf4d; stroke:none;" d="M140 86L141 87L140 86z"/>
<path style="fill:#efd551; stroke:none;" d="M174 86L175 87L174 86z"/>
<path style="fill:#e9cf4f; stroke:none;" d="M199 86L200 87L199 86z"/>
<path style="fill:#a35f09; stroke:none;" d="M202 86L203 87L202 86z"/>
<path style="fill:#ef3d01; stroke:none;" d="M90 87L91 88L90 87z"/>
<path style="fill:#874305; stroke:none;" d="M110 87L111 88L110 87z"/>
<path style="fill:#59571b; stroke:none;" d="M115 87L116 88L115 87z"/>
<path style="fill:#ebd74d; stroke:none;" d="M116 87L115 89L116 87z"/>
<path style="fill:#efd751; stroke:none;" d="M25 125L131 125L119 87C114.923 88.7143 111.445 92.0186 107 92.7755C101.083 93.783 94.6929 91.0258 89.0154 92.9236C81.7804 95.342 78.2265 102.68 70 104.467C63.3917 105.902 58.5461 99.3703 53 100.421C44.4215 102.047 30.3646 118.347 25 125z"/>
<path style="fill:#e9cf4f; stroke:none;" d="M119 87L120 88L119 87z"/>
<path style="fill:#efd551; stroke:none;" d="M193 87L194 88L193 87z"/>
<path style="fill:#5b511f; stroke:none;" d="M200 87L201 88L200 87z"/>
<path style="fill:#070701; stroke:none;" d="M202 87L203 88L202 87z"/>
<path style="fill:#eb3f01; stroke:none;" d="M203 87L204 88L203 87z"/>
<path style="fill:#615721; stroke:none;" d="M36 88L37 89L36 88z"/>
<path style="fill:#ef3d01; stroke:none;" d="M89 88L90 89L89 88z"/>
<path style="fill:#6d2301; stroke:none;" d="M109 88L110 89L109 88z"/>
<path style="fill:#777d1f; stroke:none;" d="M114 88L115 89L114 88z"/>
<path style="fill:#8f7f31; stroke:none;" d="M119 88L120 89L119 88z"/>
<path style="fill:#e9cf4f; stroke:none;" d="M200 88L201 89L200 88z"/>
<path style="fill:#732101; stroke:none;" d="M203 88L204 89L203 88z"/>
<path style="fill:#ef3d01; stroke:none;" d="M32 89L33 90L32 89z"/>
<path style="fill:#ab2d01; stroke:none;" d="M83 89L82 91L83 89z"/>
<path style="fill:#1f0901; stroke:none;" d="M84.6667 89.3333L85.3333 89.6667L84.6667 89.3333z"/>
<path style="fill:#5f1f01; stroke:none;" d="M86 89L87 90L86 89z"/>
<path style="fill:#0d1103; stroke:none;" d="M97 89L98 90L97 89z"/>
<path style="fill:#952701; stroke:none;" d="M98 89L99 90L98 89z"/>
<path style="fill:#651b01; stroke:none;" d="M107 89L108 90L107 89z"/>
<path style="fill:#232913; stroke:none;" d="M113 89L114 90L113 89z"/>
<path style="fill:#f1db61; stroke:none;" d="M114 89L115 90L114 89z"/>
<path style="fill:#5b511f; stroke:none;" d="M201 89L202 90L201 89z"/>
<path style="fill:#e93f01; stroke:none;" d="M204 89L205 90L204 89z"/>
<path style="fill:#0d0705; stroke:none;" d="M83 90L84 91L83 90z"/>
<path style="fill:#5f551f; stroke:none;" d="M112 90L113 91L112 90z"/>
<path style="fill:#efd753; stroke:none;" d="M198 90L199 91L198 90z"/>
<path style="fill:#ebd34f; stroke:none;" d="M201 90L202 91L201 90z"/>
<path style="fill:#732101; stroke:none;" d="M204 90L205 91L204 90z"/>
<path style="fill:#110501; stroke:none;" d="M82 91L83 92L82 91z"/>
<path style="fill:#615721; stroke:none;" d="M111 91L112 92L111 91z"/>
<path style="fill:#efd551; stroke:none;" d="M197 91L198 92L197 91z"/>
<path style="fill:#efd755; stroke:none;" d="M198 91L199 92L198 91z"/>
<path style="fill:#efd551; stroke:none;" d="M200 91L201 92L200 91z"/>
<path style="fill:#5f551f; stroke:none;" d="M202 91L203 92L202 91z"/>
<path style="fill:#e73b01; stroke:none;" d="M205 91L206 92L205 91z"/>
<path style="fill:#7b2101; stroke:none;" d="M81 92L82 93L81 92z"/>
<path style="fill:#615721; stroke:none;" d="M89 92L90 93L89 92z"/>
<path style="fill:#e9cf4d; stroke:none;" d="M95 92L96 93L95 92z"/>
<path style="fill:#312b11; stroke:none;" d="M96 92L97 93L96 92z"/>
<path style="fill:#615721; stroke:none;" d="M109 92L110 93L109 92z"/>
<path style="fill:#efd551; stroke:none;" d="M114 92L115 93L114 92M201 92L202 93L201 92z"/>
<path style="fill:#ebd34f; stroke:none;" d="M202 92L204 94L202 92z"/>
<path style="fill:#5b511f; stroke:none;" d="M203 92L204 93L203 92z"/>
<path style="fill:#6f1d01; stroke:none;" d="M205 92L206 93L205 92z"/>
<path style="fill:#ab2d01; stroke:none;" d="M32 93L33 94L32 93z"/>
<path style="fill:#611901; stroke:none;" d="M59 93L60 94L59 93z"/>
<path style="fill:#ab2d01; stroke:none;" d="M80 93L81 94L80 93z"/>
<path style="fill:#615721; stroke:none;" d="M87 93L88 94L87 93z"/>
<path style="fill:#732101; stroke:none;" d="M206 93L207 94L206 93z"/>
<path style="fill:#170701; stroke:none;" d="M32 94L33 95L32 94z"/>
<path style="fill:#612309; stroke:none;" d="M58 94L59 95L58 94z"/>
<path style="fill:#0b0301; stroke:none;" d="M80 94L81 95L80 94z"/>
<path style="fill:#292929; stroke:none;" d="M84 94L85 95L84 94z"/>
<path style="fill:#efd551; stroke:none;" d="M202 94L203 95L202 94z"/>
<path style="fill:#5f5521; stroke:none;" d="M204 94L205 95L204 94z"/>
<path style="fill:#732101; stroke:none;" d="M207 94L208 95L207 94z"/>
<path style="fill:#ab2d01; stroke:none;" d="M31 95L32 96L31 95z"/>
<path style="fill:#232523; stroke:none;" d="M35 95L36 96L35 95z"/>
<path style="fill:#5f1f01; stroke:none;" d="M57 95L58 96L57 95z"/>
<path style="fill:#ab2d01; stroke:none;" d="M77 95L78 96L77 95z"/>
<path style="fill:#2b0b01; stroke:none;" d="M78 95L79 96L78 95z"/>
<path style="fill:#0b0301; stroke:none;" d="M79 95L80 96L79 95z"/>
<path style="fill:#ebd34f; stroke:none;" d="M204 95L207 98L204 95z"/>
<path style="fill:#5b511f; stroke:none;" d="M205 95L206 96L205 95z"/>
<path style="fill:#732101; stroke:none;" d="M208 95L209 96L208 95z"/>
<path style="fill:#170701; stroke:none;" d="M31 96L32 97L31 96z"/>
<path style="fill:#e9cf4d; stroke:none;" d="M35 96L36 97L35 96z"/>
<path style="fill:#050501; stroke:none;" d="M56 96L57 97L56 96z"/>
<path style="fill:#952701; stroke:none;" d="M57 96L62 101L57 96z"/>
<path style="fill:#9d5f11; stroke:none;" d="M76 96L77 97L76 96z"/>
<path style="fill:#615721; stroke:none;" d="M83 96L84 97L83 96z"/>
<path style="fill:#efd551; stroke:none;" d="M194 96L196 98L194 96z"/>
<path style="fill:#5b511f; stroke:none;" d="M206 96L207 97L206 96z"/>
<path style="fill:#7b2d03; stroke:none;" d="M209 96L210 97L209 96z"/>
<path style="fill:#ab2d01; stroke:none;" d="M30 97L31 98L30 97z"/>
<path style="fill:#070301; stroke:none;" d="M57 97L58 98L57 97z"/>
<path style="fill:#ab2d01; stroke:none;" d="M75 97L76 98L75 97z"/>
<path style="fill:#070701; stroke:none;" d="M76 97L77 98L76 97z"/>
<path style="fill:#efd551; stroke:none;" d="M202 97L204 99L202 97z"/>
<path style="fill:#732101; stroke:none;" d="M210 97L211 98L210 97z"/>
<path style="fill:#150d03; stroke:none;" d="M30 98L31 99L30 98z"/>
<path style="fill:#615721; stroke:none;" d="M34 98L35 99L34 98z"/>
<path style="fill:#070301; stroke:none;" d="M58 98L59 99L58 98z"/>
<path style="fill:#8b4b07; stroke:none;" d="M74 98L75 99L74 98z"/>
<path style="fill:#615721; stroke:none;" d="M82 98L83 99L82 98z"/>
<path style="fill:#efd551; stroke:none;" d="M197 98L198 99L197 98z"/>
<path style="fill:#858725; stroke:none;" d="M207 98L208 99L207 98z"/>
<path style="fill:#732101; stroke:none;" d="M211 98L212 99L211 98z"/>
<path style="fill:#9d5f0f; stroke:none;" d="M29 99L30 100L29 99z"/>
<path style="fill:#7f712b; stroke:none;" d="M54 99L55 100L54 99z"/>
<path style="fill:#070301; stroke:none;" d="M59 99L60 100L59 99z"/>
<path style="fill:#ab2d01; stroke:none;" d="M72 99L73 100L72 99z"/>
<path style="fill:#0b0f03; stroke:none;" d="M73 99L74 100L73 99z"/>
<path style="fill:#615721; stroke:none;" d="M81 99L82 100L81 99z"/>
<path style="fill:#efd551; stroke:none;" d="M199 99L200 100L199 99z"/>
<path style="fill:#f1d757; stroke:none;" d="M204 99L205 100L204 99z"/>
<path style="fill:#efd74f; stroke:none;" d="M207 99L210 102L207 99z"/>
<path style="fill:#979d27; stroke:none;" d="M208 99L209 100L208 99z"/>
<path style="fill:#070701; stroke:none;" d="M212 99L213 100L212 99z"/>
<path style="fill:#a96509; stroke:none;" d="M213 99L214 100L213 99z"/>
<path style="fill:#111703; stroke:none;" d="M29 100L30 101L29 100z"/>
<path style="fill:#534b1d; stroke:none;" d="M33 100L34 101L33 100z"/>
<path style="fill:#433d17; stroke:none;" d="M56 100L57 101L56 100z"/>
<path style="fill:#070301; stroke:none;" d="M60 100L61 101L60 100z"/>
<path style="fill:#ef3d01; stroke:none;" d="M63 100L64 101L63 100z"/>
<path style="fill:#ab2d01; stroke:none;" d="M70 100L71 101L70 100z"/>
<path style="fill:#111503; stroke:none;" d="M71 100L72 101L71 100z"/>
<path style="fill:#615721; stroke:none;" d="M80 100L81 101L80 100z"/>
<path style="fill:#efd551; stroke:none;" d="M204 100L205 101L204 100z"/>
<path style="fill:#979d27; stroke:none;" d="M209 100L210 101L209 100z"/>
<path style="fill:#232115; stroke:none;" d="M214 100L215 101L214 100z"/>
<path style="fill:#bf5d07; stroke:none;" d="M215 100L216 101L215 100z"/>
<path style="fill:#e34f03; stroke:none;" d="M224 100L225 101L224 100z"/>
<path style="fill:#834d07; stroke:none;" d="M225 100L226 101L225 100z"/>
<path style="fill:#8d4b0b; stroke:none;" d="M28 101L29 102L28 101z"/>
<path style="fill:#e9cf4d; stroke:none;" d="M33 101L34 102L33 101z"/>
<path style="fill:#433d17; stroke:none;" d="M57 101L58 102L57 101z"/>
<path style="fill:#615721; stroke:none;" d="M77 101L78 102L77 101z"/>
<path style="fill:#efd551; stroke:none;" d="M205 101L206 102L205 101z"/>
<path style="fill:#617b0f; stroke:none;" d="M210 101L211 102L210 101z"/>
<path style="fill:#7b2d03; stroke:none;" d="M217 101L218 102L217 101z"/>
<path style="fill:#eb4301; stroke:none;" d="M225 101L226 102L225 101z"/>
<path style="fill:#ab2d01; stroke:none;" d="M27 102L28 103L27 102z"/>
<path style="fill:#534b1d; stroke:none;" d="M32 102L33 103L32 102z"/>
<path style="fill:#7b6f29; stroke:none;" d="M58 102L59 103L58 102z"/>
<path style="fill:#29230d; stroke:none;" d="M75 102L76 103L75 102z"/>
<path style="fill:#efd551; stroke:none;" d="M206 102L207 103L206 102z"/>
<path style="fill:#cbdf31; stroke:none;" d="M210 102L211 103L210 102z"/>
<path style="fill:#afdf1d; stroke:none;" d="M211 102L212 103L211 102z"/>
<path style="fill:#45570b; stroke:none;" d="M212 102L213 103L212 102z"/>
<path style="fill:#6f1d01; stroke:none;" d="M221 102L222 103L221 102z"/>
<path style="fill:#8d2501; stroke:none;" d="M225 102L226 103L225 102z"/>
<path style="fill:#431101; stroke:none;" d="M22 103L23 104L22 103z"/>
<path style="fill:#ab2d01; stroke:none;" d="M25 103L22 107L25 103z"/>
<path style="fill:#1f0901; stroke:none;" d="M26 103L27 104L26 103z"/>
<path style="fill:#211f0b; stroke:none;" d="M31 103L32 104L31 103z"/>
<path style="fill:#e9cf4d; stroke:none;" d="M32 103L33 104L32 103z"/>
<path style="fill:#7f712b; stroke:none;" d="M59 103L60 104L59 103z"/>
<path style="fill:#615721; stroke:none;" d="M73 103L74 104L73 103z"/>
<path style="fill:#e3e97b; stroke:none;" d="M212 103L213 104L212 103z"/>
<path style="fill:#617b0f; stroke:none;" d="M213 103L214 104L213 103z"/>
<path style="fill:#0f0501; stroke:none;" d="M25 104L26 105L25 104z"/>
<path style="fill:#232523; stroke:none;" d="M30 104L31 105L30 104z"/>
<path style="fill:#e9cf4d; stroke:none;" d="M63 104L64 105L63 104z"/>
<path style="fill:#5b511f; stroke:none;" d="M64 104L65 105L64 104z"/>
<path style="fill:#534b1d; stroke:none;" d="M69 104L70 105L69 104z"/>
<path style="fill:#e9cf4d; stroke:none;" d="M70 104L71 105L70 104z"/>
<path style="fill:#efd551; stroke:none;" d="M207 104L209 106L207 104M213 104L214 105L213 104z"/>
<path style="fill:#7f712b; stroke:none;" d="M216 104L217 105L216 104z"/>
<path style="fill:#0f0501; stroke:none;" d="M24 105L25 106L24 105z"/>
<path style="fill:#191d0f; stroke:none;" d="M29 105L30 106L29 105z"/>
<path style="fill:#e9cf4d; stroke:none;" d="M30 105L31 106L30 105z"/>
<path style="fill:#efd551; stroke:none;" d="M214 105L215 106L214 105z"/>
<path style="fill:#0f0501; stroke:none;" d="M23 106L24 107L23 106z"/>
<path style="fill:#3d4523; stroke:none;" d="M28 106L25 110L28 106z"/>
<path style="fill:#e9cf4d; stroke:none;" d="M29 106L30 107L29 106z"/>
<path style="fill:#efd551; stroke:none;" d="M210 106L213 109L210 106M216 106L218 108L216 106z"/>
<path style="fill:#0f0b07; stroke:none;" d="M22 107L23 108L22 107z"/>
<path style="fill:#e9cf4d; stroke:none;" d="M28 107L29 108L28 107z"/>
<path style="fill:#0b0b09; stroke:none;" d="M21 108L22 109L21 108z"/>
<path style="fill:#e9cf4d; stroke:none;" d="M27 108L28 109L27 108M26 109L27 110L26 109z"/>
<path style="fill:#efd551; stroke:none;" d="M214 109L215 110L214 109z"/>
<path style="fill:#252f07; stroke:none;" d="M19 110L20 111L19 110z"/>
<path style="fill:#050701; stroke:none;" d="M20 110L21 111L20 110z"/>
<path style="fill:#49532b; stroke:none;" d="M24 110L25 111L24 110z"/>
<path style="fill:#e9cf4d; stroke:none;" d="M25 110L26 111L25 110z"/>
<path style="fill:#0f1503; stroke:none;" d="M19 111L20 112L19 111z"/>
<path style="fill:#4b5f0d; stroke:none;" d="M23 111L22 113L23 111z"/>
<path style="fill:#d3f179; stroke:none;" d="M23 112L24 113L23 112z"/>
<path style="fill:#49532b; stroke:none;" d="M21 113L22 114L21 113z"/>
<path style="fill:#433d17; stroke:none;" d="M20 114L21 115L20 114z"/>
<path style="fill:#e9cf4d; stroke:none;" d="M21 114L22 115L21 114M20 115L21 116L20 115z"/>
<path style="fill:#615721; stroke:none;" d="M19 118L20 119L19 118z"/>
<path style="fill:#efd551; stroke:none;" d="M218 121L219 122L218 121M199 124L200 125L199 124z"/>
<path style="fill:#ffffff; stroke:none;" d="M7 130C19.9618 232.027 141.929 282.852 223 219.338C235.746 209.352 246.79 197.004 254.988 183C264.565 166.641 270.625 148.778 273 130L7 130z"/>
<path style="fill:#4b3f75; stroke:none;" d="M139 145.439C83.9988 154.097 95.9912 240.22 151 231.561C206.186 222.874 193.881 136.8 139 145.439z"/>
<path style="fill:#f5e339; stroke:none;" d="M160 198C154.284 195.296 147.983 191.498 143.274 187.244C140.785 184.995 139.159 180.775 135.093 181.542C132.721 181.99 131.724 183.866 131.293 186.044C130.138 191.889 128.088 196.862 124.652 201.867C122.766 204.614 118.455 206.257 118.457 210C118.46 216.657 126.356 214.901 127.88 209.956C128.761 207.094 129.709 204.651 131.143 202C133.076 198.424 134.874 194.909 136 191C141.81 192.851 148.414 196.97 152.726 201.322C155.262 203.881 157.199 209.033 161.775 207.214C165.506 205.731 164.64 201.008 165.09 197.83C166.155 190.323 167.822 182.318 169.855 175.015C170.697 171.987 173.568 169.186 173.544 166.005C173.511 161.664 167.644 159.7 165.194 163.434C163.377 166.206 165.228 170.078 164.776 173.17C164.296 176.461 163.453 179.738 162.8 183C161.803 187.985 160.414 192.93 160 198z"/>
</svg>
