<?xml version="1.0" standalone="yes"?>
<svg xmlns="http://www.w3.org/2000/svg" width="135" height="165">
<path style="fill:#010101; stroke:none;" d="M69 14L68 32C58.7386 26.5955 52.2007 26.8957 42 29C42 24.1647 44.1312 13.9104 37 15C42.1642 42.8165 21.163 68.2827 28 97C25.7223 95.031 22.3785 91.2892 19.0934 91.331C14.8507 91.3851 8.54113 102.009 10.1605 105.816C12.9981 112.485 24.1262 112.099 26.5285 119.043C27.7615 122.607 25.1065 125.515 23 128L23 123C17.2088 123.001 7.87042 122.4 3.74228 127.419C-1.54326 133.845 0.414413 154.057 9.00386 156.446C25.5281 161.042 45.9744 158 63 158C74.3294 158 87.0186 159.511 97.9846 156.058C106.53 153.367 107.28 130.014 100 126L100 125L132 118L126 100L78 115C80.2773 96.9806 84.5503 82.5693 81.7909 64C79.2503 46.9031 69.6611 32.9847 73 15L69 14C72.891 11.3492 78.5948 3.72774 70.9414 1.43364C63.5961 -0.768066 47.3865 -0.625 40.0046 1.43364C28.751 4.57202 38.2575 12.3956 45 13C48.3413 13.2995 51.6415 13.9031 55 13.9853C59.6617 14.0995 64.3369 14 69 14z"/>
<path style="fill:#ed1d25; stroke:none;" d="M41 10L69 9C65.0354 4.95151 40.8744 2.87367 41 10M37 49L31 83L79 82L73 50L37 49M55.0039 57.5177C67.5094 53.8931 72.7991 73.9649 59.9961 77.4707C47.3063 80.9455 42.178 61.2352 55.0039 57.5177M48 67C56.5609 69.1572 58.9218 70.8567 67 66C62.6225 56.1378 50.7335 55.5991 48 67M66 67C60.6005 71.4179 55.7197 71.5246 49 72C54.204 78.0495 69.4879 77.7434 66 67z"/>
<path style="fill:#535353; stroke:none;" d="M39 100L39 91C33.9999 92.6595 33.9999 98.3405 39 100M50 121L50 93C43.4491 95.1742 43.4491 118.826 50 121M67 113C74.3425 114.122 72.3284 99.3141 73 94C65.5143 94.3449 68.0518 107.334 67 113z"/>
<path style="fill:#efbb4f; stroke:none;" d="M18 94L12 105L24 111L30 103L18 94z"/>
<path style="fill:#535353; stroke:none;" d="M61 124L62 96C55.8867 98.029 55.1219 122.043 61 124z"/>
<path style="fill:#010101; stroke:none;" d="M33 104C39.3871 109.427 36.9328 112.19 34 119L26 114L33 104z"/>
<path style="fill:#efbb4f; stroke:none;" d="M93 113L97 123L128 115L125 104L93 113z"/>
<path style="fill:#010101; stroke:none;" d="M41 113L44 123L35 126L41 113M94 124L88 123L88 126L76 129L76 123L75 123C74.8773 126.714 74.5762 128.563 71 130L71 125L70 125L70 132L66 132L63 122L69 121L69 125L70 125L70 120L74 119L74 123L75 123L79 118L79 122L80 122L80 117C87.9371 115.364 91.5163 115.405 94 124M36 122L36 123L42 121L36 122M32 122L33 131L23 129C28.4099 129.455 29.7321 126.302 32 122M80 122L80 127L81 127L80 122M40 127L40 131L36 131L36 127L40 127z"/>
<path style="fill:#632d63; stroke:none;" d="M93 129C91.2028 140.606 71.7139 138.075 63 136L55.0262 145.388L48.3248 143.176L41.8665 148.137L46 139L57 143L61 128L45 128C43.6776 139.766 18.9072 139.926 18 128C15.1459 128.227 10.9226 128.237 8.60339 130.164C5.46827 132.77 5.80813 147.473 8.60339 150.262C11.1928 152.845 16.5964 152.902 20 152.985C36.3122 153.386 52.6824 153 69 153C77.2255 153 87.0351 154.354 94.9414 151.606C102.332 149.037 101.25 129.95 93 129z"/>
<path style="fill:#010101; stroke:none;" d="M88 129C87.0184 133.581 80.8838 132 77 132L88 129z"/>
<path style="fill:#fff301; stroke:none;" d="M59 135C58.4532 138.547 59.4531 139.547 63 139L61 135L59 135z"/>
<path style="fill:#615b01; stroke:none;" d="M61 135L62 136L61 135z"/>
<path style="fill:#211f01; stroke:none;" d="M61.6667 136.333L62.3333 136.667L61.6667 136.333z"/>
<path style="fill:#f3e309; stroke:none;" d="M60 137L61 138L60 137z"/>
<path style="fill:#fff301; stroke:none;" d="M46 139L46 141L47 142L51 141L51 139L46 139z"/>
<path style="fill:#fdf101; stroke:none;" d="M48 139L49 140L48 139z"/>
<path style="fill:#e3cd13; stroke:none;" d="M58 140L57 142L58 140z"/>
<path style="fill:#f5e707; stroke:none;" d="M59 140L60 141L59 140z"/>
<path style="fill:#fff101; stroke:none;" d="M49 141L49 142L52 143L49 141z"/>
<path style="fill:#fbed05; stroke:none;" d="M51 141L52 142L51 141z"/>
<path style="fill:#f5e707; stroke:none;" d="M58 141L59 142L58 141z"/>
<path style="fill:#fbed05; stroke:none;" d="M46 142L47 143L46 142z"/>
<path style="fill:#fff101; stroke:none;" d="M47 142L48 143L47 142z"/>
<path style="fill:#fff301; stroke:none;" d="M52 142C53.4072 145.314 54.3489 146.556 58 146L58 142L52 142z"/>
<path style="fill:#e3cd13; stroke:none;" d="M53 142L54 143L53 142M45 143L46 144L45 143z"/>
<path style="fill:#fff301; stroke:none;" d="M46 143L45 145L46 143z"/>
<path style="fill:#f5e707; stroke:none;" d="M52 143L53 144L52 143M57 143L58 144L57 143M46 144L47 145L46 144z"/>
<path style="fill:#f9ed03; stroke:none;" d="M55 144L56 145L55 144z"/>
<path style="fill:#fff301; stroke:none;" d="M41.6026 146.157C39.8698 147.314 41.6642 150.001 43.3974 148.843C45.1301 147.686 43.3358 144.999 41.6026 146.157z"/>
<path style="fill:#fbed05; stroke:none;" d="M44 145L45 146L44 145z"/>
<path style="fill:#fff101; stroke:none;" d="M45 145L46 146L45 145M41 148L42 149L41 148z"/>
</svg>
